<svg width="122" height="69" viewBox="0 0 122 69" fill="none" xmlns="http://www.w3.org/2000/svg">
<path d="M42.9776 6.01155C43.7764 4.16533 43.1807 2.00916 41.5425 0.82326C39.9043 -0.362635 37.6704 -0.254826 36.1405 1.06583L1.48134 31.2523C0.127461 32.4382 -0.359934 34.3383 0.276387 36.0093C0.912708 37.6804 2.53736 38.8123 4.33801 38.8123H19.4337L9.02241 62.9884C8.22363 64.8347 8.81933 66.9908 10.4575 68.1767C12.0957 69.3626 14.3296 69.2548 15.8595 67.9342L50.5187 37.7477C51.8725 36.5618 52.3599 34.6617 51.7236 32.9907C51.0873 31.3196 49.4762 30.2011 47.662 30.2011H32.5663L42.9776 6.01155Z" fill="#EDF112"/>
<path d="M60.7614 33V18.4545H65.8466C66.8598 18.4545 67.6955 18.6297 68.3537 18.9801C69.0118 19.3258 69.5019 19.7921 69.8239 20.3793C70.1458 20.9616 70.3068 21.608 70.3068 22.3182C70.3068 22.9432 70.1955 23.4593 69.973 23.8665C69.7552 24.2737 69.4664 24.5956 69.1065 24.8324C68.7514 25.0691 68.3655 25.2443 67.9489 25.358V25.5C68.3939 25.5284 68.8414 25.6847 69.2912 25.9688C69.741 26.2528 70.1174 26.66 70.4205 27.1903C70.7235 27.7206 70.875 28.3693 70.875 29.1364C70.875 29.8655 70.7093 30.5213 70.3778 31.1037C70.0464 31.6861 69.5232 32.1477 68.8082 32.4886C68.0933 32.8295 67.1629 33 66.017 33H60.7614ZM62.5227 31.4375H66.017C67.1676 31.4375 67.9844 31.215 68.4673 30.7699C68.955 30.3201 69.1989 29.7756 69.1989 29.1364C69.1989 28.6439 69.0734 28.1894 68.8224 27.7727C68.5715 27.3513 68.214 27.0152 67.75 26.7642C67.286 26.5085 66.7367 26.3807 66.1023 26.3807H62.5227V31.4375ZM62.5227 24.8466H65.7898C66.3201 24.8466 66.7983 24.7424 67.2244 24.5341C67.6553 24.3258 67.9962 24.0322 68.2472 23.6534C68.5028 23.2746 68.6307 22.8295 68.6307 22.3182C68.6307 21.679 68.4081 21.1368 67.9631 20.6918C67.518 20.242 66.8125 20.017 65.8466 20.017H62.5227V24.8466ZM86.0419 25.7273C86.0419 27.2614 85.7649 28.5871 85.2109 29.7045C84.657 30.822 83.897 31.6837 82.9311 32.2898C81.9652 32.8958 80.862 33.1989 79.6214 33.1989C78.3809 33.1989 77.2777 32.8958 76.3118 32.2898C75.3459 31.6837 74.5859 30.822 74.032 29.7045C73.478 28.5871 73.201 27.2614 73.201 25.7273C73.201 24.1932 73.478 22.8674 74.032 21.75C74.5859 20.6326 75.3459 19.7708 76.3118 19.1648C77.2777 18.5587 78.3809 18.2557 79.6214 18.2557C80.862 18.2557 81.9652 18.5587 82.9311 19.1648C83.897 19.7708 84.657 20.6326 85.2109 21.75C85.7649 22.8674 86.0419 24.1932 86.0419 25.7273ZM84.3374 25.7273C84.3374 24.4678 84.1267 23.4048 83.7053 22.5384C83.2886 21.6719 82.7228 21.0161 82.0078 20.571C81.2976 20.1259 80.5021 19.9034 79.6214 19.9034C78.7408 19.9034 77.9429 20.1259 77.228 20.571C76.5178 21.0161 75.9519 21.6719 75.5305 22.5384C75.1139 23.4048 74.9055 24.4678 74.9055 25.7273C74.9055 26.9867 75.1139 28.0497 75.5305 28.9162C75.9519 29.7827 76.5178 30.4384 77.228 30.8835C77.9429 31.3286 78.7408 31.5511 79.6214 31.5511C80.5021 31.5511 81.2976 31.3286 82.0078 30.8835C82.7228 30.4384 83.2886 29.7827 83.7053 28.9162C84.1267 28.0497 84.3374 26.9867 84.3374 25.7273ZM89.0036 33V18.4545H90.7649V31.4375H97.5263V33H89.0036ZM97.5245 20.017V18.4545H108.434V20.017H103.86V33H102.098V20.017H97.5245ZM110.669 33V31.7216L118.51 20.017H110.584V18.4545H120.612V19.733L112.771 31.4375H120.697V33H110.669Z" fill="#FDFF84"/>
<path d="M59 36.9773H121.891V38.3409H59V36.9773Z" fill="#FDFF84"/>
<path d="M67.8011 44.3636C67.7415 43.8598 67.4995 43.4688 67.0753 43.1903C66.651 42.9119 66.1307 42.7727 65.5142 42.7727C65.0634 42.7727 64.669 42.8456 64.331 42.9915C63.9962 43.1373 63.7344 43.3378 63.5455 43.593C63.3598 43.8482 63.267 44.1383 63.267 44.4631C63.267 44.7348 63.3317 44.9685 63.4609 45.1641C63.5935 45.3563 63.7625 45.517 63.968 45.6463C64.1735 45.7723 64.389 45.8767 64.6143 45.9595C64.8397 46.0391 65.0469 46.1037 65.2358 46.1534L66.2699 46.4318C66.535 46.5014 66.83 46.5975 67.1548 46.7202C67.483 46.8428 67.7962 47.0102 68.0945 47.2223C68.3961 47.4311 68.6446 47.6996 68.8402 48.0277C69.0357 48.3558 69.1335 48.7585 69.1335 49.2358C69.1335 49.786 68.9893 50.2831 68.701 50.7273C68.416 51.1714 67.9983 51.5244 67.4482 51.7862C66.9013 52.0481 66.2367 52.179 65.4545 52.179C64.7254 52.179 64.094 52.0613 63.5604 51.826C63.0301 51.5907 62.6125 51.2625 62.3075 50.8416C62.0059 50.4207 61.8352 49.9318 61.7955 49.375H63.0682C63.1013 49.7595 63.2306 50.0777 63.456 50.3295C63.6847 50.5781 63.973 50.7637 64.321 50.8864C64.6723 51.0057 65.0502 51.0653 65.4545 51.0653C65.9252 51.0653 66.3478 50.9891 66.7223 50.8366C67.0968 50.6809 67.3935 50.4654 67.6122 50.1903C67.831 49.9119 67.9403 49.5871 67.9403 49.2159C67.9403 48.8778 67.8459 48.6027 67.657 48.3906C67.468 48.1785 67.2195 48.0062 66.9112 47.8736C66.603 47.741 66.2699 47.625 65.9119 47.5256L64.6591 47.1676C63.8636 46.9389 63.2339 46.6125 62.7699 46.1882C62.3059 45.764 62.0739 45.2088 62.0739 44.5227C62.0739 43.9527 62.228 43.4555 62.5362 43.0312C62.8478 42.6037 63.2654 42.2723 63.7891 42.0369C64.3161 41.7983 64.9044 41.679 65.554 41.679C66.2102 41.679 66.7936 41.7966 67.304 42.032C67.8144 42.264 68.2188 42.5821 68.517 42.9865C68.8187 43.3909 68.9777 43.8499 68.9943 44.3636H67.8011ZM71.0016 52V44.3636H72.1749V52H71.0016ZM71.5982 43.0909C71.3695 43.0909 71.1723 43.013 71.0066 42.8572C70.8442 42.7015 70.763 42.5142 70.763 42.2955C70.763 42.0767 70.8442 41.8894 71.0066 41.7337C71.1723 41.5779 71.3695 41.5 71.5982 41.5C71.8269 41.5 72.0224 41.5779 72.1848 41.7337C72.3506 41.8894 72.4334 42.0767 72.4334 42.2955C72.4334 42.5142 72.3506 42.7015 72.1848 42.8572C72.0224 43.013 71.8269 43.0909 71.5982 43.0909ZM79.733 46.0739L78.679 46.3722C78.6127 46.1965 78.5149 46.0258 78.3857 45.8601C78.2597 45.6911 78.0874 45.5518 77.8686 45.4425C77.6499 45.3331 77.3698 45.2784 77.0284 45.2784C76.5611 45.2784 76.1716 45.3861 75.8601 45.6016C75.5518 45.8137 75.3977 46.0838 75.3977 46.4119C75.3977 46.7036 75.5038 46.9339 75.7159 47.103C75.928 47.272 76.2595 47.4129 76.7102 47.5256L77.8438 47.804C78.5265 47.9697 79.0353 48.2232 79.37 48.5646C79.7048 48.9027 79.8722 49.3385 79.8722 49.8722C79.8722 50.3097 79.7462 50.7008 79.4943 51.0455C79.2457 51.3902 78.8977 51.6619 78.4503 51.8608C78.0028 52.0597 77.4825 52.1591 76.8892 52.1591C76.1103 52.1591 75.4657 51.9901 74.9553 51.652C74.4448 51.3139 74.1217 50.8201 73.9858 50.1705L75.0994 49.892C75.2055 50.303 75.406 50.6113 75.701 50.8168C75.9993 51.0223 76.3887 51.125 76.8693 51.125C77.4162 51.125 77.8504 51.009 78.1719 50.777C78.4967 50.5417 78.6591 50.2599 78.6591 49.9318C78.6591 49.6667 78.5663 49.4446 78.3807 49.2656C78.1951 49.0833 77.91 48.9474 77.5256 48.858L76.2528 48.5597C75.5535 48.3939 75.0398 48.1371 74.7116 47.7891C74.3868 47.4377 74.2244 46.9986 74.2244 46.4716C74.2244 46.0407 74.3454 45.6596 74.5874 45.3281C74.8326 44.9967 75.1657 44.7365 75.5866 44.5476C76.0109 44.3587 76.4915 44.2642 77.0284 44.2642C77.7841 44.2642 78.3774 44.4299 78.8082 44.7614C79.2424 45.0928 79.5507 45.5303 79.733 46.0739ZM84.9593 44.3636V45.358H81.002V44.3636H84.9593ZM82.1554 42.5341H83.3287V49.8125C83.3287 50.1439 83.3767 50.3925 83.4728 50.5582C83.5723 50.7206 83.6982 50.83 83.8507 50.8864C84.0065 50.9394 84.1705 50.9659 84.3429 50.9659C84.4721 50.9659 84.5782 50.9593 84.661 50.946C84.7439 50.9295 84.8102 50.9162 84.8599 50.9062L85.0985 51.9602C85.019 51.9901 84.908 52.0199 84.7654 52.0497C84.6229 52.0829 84.4423 52.0994 84.2235 52.0994C83.8921 52.0994 83.5673 52.0282 83.2491 51.8857C82.9342 51.7431 82.6724 51.526 82.4636 51.2344C82.2581 50.9427 82.1554 50.5748 82.1554 50.1307V42.5341ZM89.8439 52.1591C89.1081 52.1591 88.4734 51.9967 87.9398 51.6719C87.4095 51.3438 87.0002 50.8864 86.7118 50.2997C86.4268 49.7098 86.2843 49.0237 86.2843 48.2415C86.2843 47.4593 86.4268 46.7699 86.7118 46.1733C87.0002 45.5734 87.4012 45.1061 87.915 44.7713C88.432 44.4332 89.0352 44.2642 89.7246 44.2642C90.1223 44.2642 90.5151 44.3305 90.9029 44.4631C91.2907 44.5956 91.6436 44.8111 91.9618 45.1094C92.28 45.4044 92.5336 45.7955 92.7225 46.2827C92.9114 46.7699 93.0059 47.3698 93.0059 48.0824V48.5795H87.1195V47.5653H91.8127C91.8127 47.1345 91.7265 46.75 91.5542 46.4119C91.3851 46.0739 91.1432 45.8071 90.8283 45.6115C90.5167 45.416 90.1489 45.3182 89.7246 45.3182C89.2573 45.3182 88.8529 45.4342 88.5115 45.6662C88.1735 45.8949 87.9133 46.1932 87.731 46.5611C87.5487 46.929 87.4576 47.3234 87.4576 47.7443V48.4205C87.4576 48.9972 87.557 49.486 87.7559 49.8871C87.958 50.2848 88.2381 50.5881 88.5961 50.7969C88.954 51.0024 89.37 51.1051 89.8439 51.1051C90.1522 51.1051 90.4306 51.062 90.6792 50.9759C90.931 50.8864 91.1481 50.7538 91.3304 50.5781C91.5127 50.3991 91.6536 50.1771 91.753 49.9119L92.8865 50.2301C92.7672 50.6146 92.5667 50.9527 92.285 51.2443C92.0033 51.5327 91.6552 51.758 91.2409 51.9205C90.8266 52.0795 90.361 52.1591 89.8439 52.1591ZM94.7907 52V44.3636H95.9242V45.5568H96.0236C96.1827 45.1491 96.4396 44.8326 96.7942 44.6072C97.1489 44.3786 97.5748 44.2642 98.0719 44.2642C98.5757 44.2642 98.995 44.3786 99.3297 44.6072C99.6678 44.8326 99.9313 45.1491 100.12 45.5568H100.2C100.395 45.1624 100.689 44.8492 101.08 44.6172C101.471 44.3819 101.94 44.2642 102.487 44.2642C103.169 44.2642 103.728 44.478 104.162 44.9055C104.596 45.3298 104.813 45.991 104.813 46.8892V52H103.64V46.8892C103.64 46.3258 103.486 45.9231 103.178 45.6811C102.869 45.4392 102.507 45.3182 102.089 45.3182C101.552 45.3182 101.136 45.4806 100.841 45.8054C100.546 46.1269 100.399 46.5346 100.399 47.0284V52H99.2054V46.7699C99.2054 46.3357 99.0646 45.986 98.7828 45.7209C98.5011 45.4524 98.1382 45.3182 97.6941 45.3182C97.3891 45.3182 97.1041 45.3994 96.839 45.5618C96.5771 45.7242 96.365 45.9496 96.2026 46.2379C96.0435 46.523 95.964 46.8527 95.964 47.2273V52H94.7907ZM109.206 52.179C108.722 52.179 108.283 52.0878 107.888 51.9055C107.494 51.7199 107.181 51.4531 106.949 51.1051C106.717 50.7538 106.601 50.3295 106.601 49.8324C106.601 49.3949 106.687 49.0402 106.859 48.7685C107.032 48.4934 107.262 48.2779 107.55 48.1222C107.839 47.9664 108.157 47.8504 108.505 47.7741C108.856 47.6946 109.209 47.6316 109.564 47.5852C110.028 47.5256 110.404 47.4808 110.692 47.451C110.984 47.4179 111.196 47.3632 111.329 47.2869C111.465 47.2107 111.532 47.0781 111.532 46.8892V46.8494C111.532 46.3589 111.398 45.9777 111.13 45.706C110.865 45.4342 110.462 45.2983 109.922 45.2983C109.362 45.2983 108.922 45.4209 108.604 45.6662C108.286 45.9115 108.062 46.1733 107.933 46.4517L106.819 46.054C107.018 45.59 107.283 45.2287 107.615 44.9702C107.95 44.7083 108.314 44.526 108.709 44.4233C109.106 44.3172 109.497 44.2642 109.882 44.2642C110.127 44.2642 110.409 44.294 110.727 44.3537C111.049 44.41 111.358 44.5277 111.657 44.7067C111.958 44.8857 112.209 45.1558 112.407 45.517C112.606 45.8783 112.706 46.3622 112.706 46.9688V52H111.532V50.9659H111.473C111.393 51.1316 111.261 51.3089 111.075 51.4979C110.89 51.6868 110.643 51.8475 110.334 51.9801C110.026 52.1127 109.65 52.179 109.206 52.179ZM109.385 51.125C109.849 51.125 110.24 51.0339 110.558 50.8516C110.88 50.6693 111.122 50.4339 111.284 50.1456C111.45 49.8572 111.532 49.554 111.532 49.2358V48.1619C111.483 48.2216 111.373 48.2763 111.204 48.326C111.039 48.3724 110.846 48.4138 110.628 48.4503C110.412 48.4834 110.202 48.5133 109.996 48.5398C109.794 48.563 109.63 48.5829 109.504 48.5994C109.199 48.6392 108.914 48.7038 108.649 48.7933C108.387 48.8795 108.175 49.0104 108.013 49.1861C107.854 49.3584 107.774 49.5937 107.774 49.892C107.774 50.2997 107.925 50.608 108.226 50.8168C108.531 51.0223 108.917 51.125 109.385 51.125ZM120.256 46.0739L119.202 46.3722C119.136 46.1965 119.038 46.0258 118.909 45.8601C118.783 45.6911 118.611 45.5518 118.392 45.4425C118.173 45.3331 117.893 45.2784 117.552 45.2784C117.085 45.2784 116.695 45.3861 116.384 45.6016C116.075 45.8137 115.921 46.0838 115.921 46.4119C115.921 46.7036 116.027 46.9339 116.239 47.103C116.451 47.272 116.783 47.4129 117.234 47.5256L118.367 47.804C119.05 47.9697 119.559 48.2232 119.893 48.5646C120.228 48.9027 120.396 49.3385 120.396 49.8722C120.396 50.3097 120.27 50.7008 120.018 51.0455C119.769 51.3902 119.421 51.6619 118.974 51.8608C118.526 52.0597 118.006 52.1591 117.413 52.1591C116.634 52.1591 115.989 51.9901 115.479 51.652C114.968 51.3139 114.645 50.8201 114.509 50.1705L115.623 49.892C115.729 50.303 115.929 50.6113 116.224 50.8168C116.523 51.0223 116.912 51.125 117.393 51.125C117.94 51.125 118.374 51.009 118.695 50.777C119.02 50.5417 119.183 50.2599 119.183 49.9318C119.183 49.6667 119.09 49.4446 118.904 49.2656C118.719 49.0833 118.433 48.9474 118.049 48.858L116.776 48.5597C116.077 48.3939 115.563 48.1371 115.235 47.7891C114.91 47.4377 114.748 46.9986 114.748 46.4716C114.748 46.0407 114.869 45.6596 115.111 45.3281C115.356 44.9967 115.689 44.7365 116.11 44.5476C116.534 44.3587 117.015 44.2642 117.552 44.2642C118.308 44.2642 118.901 44.4299 119.332 44.7614C119.766 45.0928 120.074 45.5303 120.256 46.0739Z" fill="#FDFF84"/>
</svg>
